<?xml version="1.0" encoding="UTF-8"?>
<svg xmlns="http://www.w3.org/2000/svg" xmlns:xlink="http://www.w3.org/1999/xlink" width="px" height="18px" viewBox="0 0 18 18" version="1.1">
<g id="surface1">
<path style=" stroke:none;fill-rule:nonzero;fill:rgb(0%,0%,0%);fill-opacity:1;" d="M 9.003906 4.957031 C 6.730469 4.957031 4.898438 6.761719 4.898438 8.996094 C 4.898438 11.234375 6.730469 13.035156 9.003906 13.035156 C 11.273438 13.035156 13.105469 11.234375 13.105469 8.996094 C 13.105469 6.761719 11.273438 4.957031 9.003906 4.957031 Z M 9.003906 11.621094 C 7.535156 11.621094 6.335938 10.445312 6.335938 8.996094 C 6.335938 7.546875 7.53125 6.371094 9.003906 6.371094 C 10.476562 6.371094 11.671875 7.546875 11.671875 8.996094 C 11.671875 10.445312 10.472656 11.621094 9.003906 11.621094 Z M 14.230469 4.792969 C 14.230469 5.316406 13.804688 5.734375 13.273438 5.734375 C 12.742188 5.734375 12.316406 5.3125 12.316406 4.792969 C 12.316406 4.273438 12.746094 3.851562 13.273438 3.851562 C 13.804688 3.851562 14.230469 4.273438 14.230469 4.792969 Z M 16.949219 5.75 C 16.890625 4.484375 16.597656 3.367188 15.65625 2.445312 C 14.722656 1.527344 13.585938 1.238281 12.304688 1.175781 C 10.980469 1.101562 7.019531 1.101562 5.699219 1.175781 C 4.421875 1.234375 3.285156 1.523438 2.347656 2.445312 C 1.40625 3.363281 1.117188 4.484375 1.054688 5.746094 C 0.980469 7.046875 0.980469 10.945312 1.054688 12.246094 C 1.113281 13.507812 1.40625 14.625 2.347656 15.546875 C 3.285156 16.46875 4.417969 16.753906 5.699219 16.820312 C 7.019531 16.894531 10.980469 16.894531 12.304688 16.820312 C 13.585938 16.757812 14.722656 16.472656 15.65625 15.546875 C 16.59375 14.625 16.886719 13.507812 16.949219 12.246094 C 17.023438 10.945312 17.023438 7.050781 16.949219 5.75 Z M 15.242188 13.640625 C 14.964844 14.328125 14.425781 14.859375 13.722656 15.136719 C 12.667969 15.550781 10.167969 15.453125 9.003906 15.453125 C 7.839844 15.453125 5.335938 15.546875 4.285156 15.136719 C 3.585938 14.863281 3.046875 14.332031 2.765625 13.640625 C 2.347656 12.601562 2.441406 10.140625 2.441406 8.996094 C 2.441406 7.851562 2.351562 5.386719 2.765625 4.351562 C 3.042969 3.664062 3.582031 3.132812 4.285156 2.855469 C 5.339844 2.445312 7.839844 2.539062 9.003906 2.539062 C 10.167969 2.539062 12.671875 2.445312 13.722656 2.855469 C 14.421875 3.128906 14.960938 3.660156 15.242188 4.351562 C 15.660156 5.390625 15.5625 7.851562 15.5625 8.996094 C 15.5625 10.140625 15.660156 12.605469 15.242188 13.640625 Z M 15.242188 13.640625 "/>
</g>
</svg>
