<?xml version="1.0" encoding="UTF-8"?>
<svg xmlns="http://www.w3.org/2000/svg" xmlns:xlink="http://www.w3.org/1999/xlink" width="16px" height="18px" viewBox="0 0 16 18" version="1.1">
<g id="surface1">
<path style=" stroke:none;fill-rule:nonzero;fill:rgb(0%,0%,0%);fill-opacity:1;" d="M 8.003906 4.957031 C 5.730469 4.957031 3.898438 6.761719 3.898438 8.996094 C 3.898438 11.234375 5.730469 13.035156 8.003906 13.035156 C 10.273438 13.035156 12.105469 11.234375 12.105469 8.996094 C 12.105469 6.761719 10.273438 4.957031 8.003906 4.957031 Z M 8.003906 11.621094 C 6.535156 11.621094 5.335938 10.445312 5.335938 8.996094 C 5.335938 7.546875 6.53125 6.371094 8.003906 6.371094 C 9.476562 6.371094 10.671875 7.546875 10.671875 8.996094 C 10.671875 10.445312 9.472656 11.621094 8.003906 11.621094 Z M 13.230469 4.792969 C 13.230469 5.316406 12.804688 5.734375 12.273438 5.734375 C 11.742188 5.734375 11.316406 5.3125 11.316406 4.792969 C 11.316406 4.273438 11.746094 3.851562 12.273438 3.851562 C 12.804688 3.851562 13.230469 4.273438 13.230469 4.792969 Z M 15.949219 5.75 C 15.890625 4.484375 15.597656 3.367188 14.65625 2.445312 C 13.722656 1.527344 12.585938 1.238281 11.304688 1.175781 C 9.980469 1.101562 6.019531 1.101562 4.699219 1.175781 C 3.421875 1.234375 2.285156 1.523438 1.347656 2.445312 C 0.40625 3.363281 0.117188 4.484375 0.0546875 5.746094 C -0.0195312 7.046875 -0.0195312 10.945312 0.0546875 12.246094 C 0.113281 13.507812 0.40625 14.625 1.347656 15.546875 C 2.285156 16.46875 3.417969 16.753906 4.699219 16.820312 C 6.019531 16.894531 9.980469 16.894531 11.304688 16.820312 C 12.585938 16.757812 13.722656 16.472656 14.65625 15.546875 C 15.59375 14.625 15.886719 13.507812 15.949219 12.246094 C 16.023438 10.945312 16.023438 7.050781 15.949219 5.75 Z M 14.242188 13.640625 C 13.964844 14.328125 13.425781 14.859375 12.722656 15.136719 C 11.667969 15.550781 9.167969 15.453125 8.003906 15.453125 C 6.839844 15.453125 4.335938 15.546875 3.285156 15.136719 C 2.585938 14.863281 2.046875 14.332031 1.765625 13.640625 C 1.347656 12.601562 1.441406 10.140625 1.441406 8.996094 C 1.441406 7.851562 1.351562 5.386719 1.765625 4.351562 C 2.042969 3.664062 2.582031 3.132812 3.285156 2.855469 C 4.339844 2.445312 6.839844 2.539062 8.003906 2.539062 C 9.167969 2.539062 11.671875 2.445312 12.722656 2.855469 C 13.421875 3.128906 13.960938 3.660156 14.242188 4.351562 C 14.660156 5.390625 14.5625 7.851562 14.5625 8.996094 C 14.5625 10.140625 14.660156 12.605469 14.242188 13.640625 Z M 14.242188 13.640625 "/>
</g>
</svg>
