<?xml version="1.0" encoding="UTF-8"?>
<svg xmlns="http://www.w3.org/2000/svg" xmlns:xlink="http://www.w3.org/1999/xlink" width="px" height="18px" viewBox="0 0 18 18" version="1.1">
<g id="surface1">
<path style=" stroke:none;fill-rule:nonzero;fill:rgb(0%,0%,0%);fill-opacity:1;" d="M 4.582031 15.75 L 1.265625 15.75 L 1.265625 5.234375 L 4.582031 5.234375 Z M 2.921875 3.800781 C 1.859375 3.800781 1 2.9375 1 1.890625 C 1 0.847656 1.859375 0 2.921875 0 C 3.980469 0 4.84375 0.847656 4.84375 1.890625 C 4.84375 2.9375 3.980469 3.800781 2.921875 3.800781 Z M 16.996094 15.75 L 13.6875 15.75 L 13.6875 10.632812 C 13.6875 9.410156 13.660156 7.847656 11.960938 7.847656 C 10.238281 7.847656 9.972656 9.171875 9.972656 10.542969 L 9.972656 15.75 L 6.660156 15.75 L 6.660156 5.234375 L 9.839844 5.234375 L 9.839844 6.667969 L 9.886719 6.667969 C 10.328125 5.84375 11.410156 4.972656 13.027344 4.972656 C 16.382812 4.972656 17 7.148438 17 9.972656 L 17 15.75 Z M 16.996094 15.75 "/>
</g>
</svg>
