<?xml version="1.0" encoding="UTF-8"?>
<svg xmlns="http://www.w3.org/2000/svg" xmlns:xlink="http://www.w3.org/1999/xlink" width="px" height="18px" viewBox="0 0 14 18" version="1.1">
<g id="surface1">
<path style=" stroke:none;fill-rule:nonzero;fill:rgb(0%,0%,0%);fill-opacity:1;" d="M 7.4375 0.226562 C 3.695312 0.226562 0 2.632812 0 6.527344 C 0 9 1.445312 10.40625 2.320312 10.40625 C 2.679688 10.40625 2.890625 9.433594 2.890625 9.164062 C 2.890625 8.832031 2.023438 8.140625 2.023438 6.777344 C 2.023438 3.949219 4.257812 1.945312 7.140625 1.945312 C 9.625 1.945312 11.460938 3.308594 11.460938 5.808594 C 11.460938 7.671875 10.6875 11.175781 8.171875 11.175781 C 7.265625 11.175781 6.484375 10.542969 6.484375 9.636719 C 6.484375 8.304688 7.445312 7.023438 7.445312 5.652344 C 7.445312 3.320312 4.023438 3.742188 4.023438 6.554688 C 4.023438 7.144531 4.101562 7.800781 4.375 8.339844 C 3.875 10.429688 2.84375 13.539062 2.84375 15.6875 C 2.84375 16.355469 2.945312 17.007812 3.007812 17.675781 C 3.132812 17.804688 3.070312 17.792969 3.257812 17.726562 C 5.09375 15.300781 5.03125 14.828125 5.859375 11.648438 C 6.3125 12.472656 7.46875 12.914062 8.390625 12.914062 C 12.257812 12.914062 14 9.277344 14 6 C 14 2.503906 10.875 0.226562 7.4375 0.226562 Z M 7.4375 0.226562 "/>
</g>
</svg>
